<?xml version="1.0" encoding="UTF-8"?>
<svg width="35px" height="41px" viewBox="0 0 35 41" version="1.1" xmlns="http://www.w3.org/2000/svg" xmlns:xlink="http://www.w3.org/1999/xlink">
    <!-- Generator: Sketch 59.1 (86144) - https://sketch.com -->
    <title>Group 8</title>
    <desc>Created with Sketch.</desc>
    <g id="Page-1" stroke="none" stroke-width="1" fill="none" fill-rule="evenodd" stroke-linecap="round" stroke-linejoin="round">
        <g id="Desktop-C4-Nosotros" transform="translate(-69.000000, -3952.000000)" stroke="#FF671B">
            <g id="Group-8" transform="translate(70.000000, 3952.000000)">
                <line x1="7.3288" y1="14.1574" x2="23.5468" y2="14.1574" id="Stroke-1"></line>
                <line x1="7.3288" y1="19.279" x2="20.9858" y2="19.279" id="Stroke-2"></line>
                <line x1="7.3288" y1="9.0358" x2="19.2788" y2="9.0358" id="Stroke-3"></line>
                <line x1="7.3288" y1="24.4006" x2="23.5468" y2="24.4006" id="Stroke-4"></line>
                <line x1="7.3288" y1="29.5221" x2="20.9858" y2="29.5221" id="Stroke-5"></line>
                <path d="M32.9362,39.7653 L2.2072,39.7653 C1.2642,39.7653 0.4992,39.0013 0.4992,38.0583 L0.4992,2.2073 C0.4992,1.2643 1.2642,0.5003 2.2072,0.5003 L24.9012,0.5003 C25.3532,0.5003 25.7882,0.6803 26.1082,1.0003 L32.4362,7.3283 C32.7562,7.6483 32.9362,8.0833 32.9362,8.5363 L32.9362,39.7653" id="Stroke-6"></path>
            </g>
        </g>
    </g>
</svg>