<?xml version="1.0" encoding="UTF-8"?>
<svg width="40px" height="42px" viewBox="0 0 40 42" version="1.1" xmlns="http://www.w3.org/2000/svg" xmlns:xlink="http://www.w3.org/1999/xlink">
    <!-- Generator: Sketch 59.1 (86144) - https://sketch.com -->
    <title>Group 23</title>
    <desc>Created with Sketch.</desc>
    <g id="Page-1" stroke="none" stroke-width="1" fill="none" fill-rule="evenodd" stroke-linecap="round" stroke-linejoin="round">
        <g id="Desktop-C4-Nosotros" transform="translate(-459.000000, -3950.000000)" stroke="#FF671B">
            <g id="Group-23" transform="translate(460.000000, 3951.000000)">
                <line x1="32.9362" y1="34.9032" x2="26.2292" y2="36.2452" id="Stroke-1"></line>
                <g id="Group-22" transform="translate(0.000000, 0.265300)">
                    <path d="M26.9606,28.4031 L23.7956,29.7021 C22.7746,30.1141 21.6096,29.6461 21.1596,28.6421 C20.7086,27.6371 21.1326,26.4561 22.1186,25.9671 L25.2826,24.4301 C25.9776,24.0831 26.7846,24.0371 27.5156,24.3021 L33.2906,26.5111" id="Stroke-2"></path>
                    <path d="M14.1579,36.0857 L16.5479,36.0857 L20.5249,39.1087 C20.9419,39.5767 21.6529,39.6317 22.1369,39.2357 L28.1119,34.4427 C28.6009,34.0417 28.6799,33.3227 28.2919,32.8227 L25.0109,29.2077" id="Stroke-4"></path>
                    <path d="M21.8571,26.1413 L21.4301,25.7893 C21.0001,25.4733 20.4791,25.3032879 19.9451,25.3032879 C19.6261,25.3023 19.3101,25.3633 19.0141,25.4823 L14.1581,27.5493" id="Stroke-6"></path>
                    <path d="M9.0358,37.7927 L12.4498,37.7927 C13.3928,37.7927 14.1578,37.0287 14.1578,36.0857 L14.1578,27.5497 C14.1578,26.6067 13.3928,25.8427 12.4498,25.8427 L9.0358,25.8427 L9.0358,37.7927 Z" id="Stroke-8"></path>
                    <path d="M38.0583,37.7927 L34.6443,37.7927 C33.7013,37.7927 32.9363,37.0287 32.9363,36.0857 L32.9363,27.5497 C32.9363,26.6067 33.7013,25.8427 34.6443,25.8427 L38.0583,25.8427 L38.0583,37.7927 Z" id="Stroke-10"></path>
                    <path d="M26.9616,0.2346 L5.6216,0.2346 C2.7926,0.2346 0.4996,2.5276 0.4996,5.3566 L0.4996,38.6466 C0.4996,39.1176 0.8826,39.5006 1.3536,39.5006 L5.6216,39.5006" id="Stroke-12"></path>
                    <line x1="5.6218" y1="7.0632" x2="17.5718" y2="7.0632" id="Stroke-14"></line>
                    <line x1="5.6218" y1="12.1848" x2="17.5718" y2="12.1848" id="Stroke-16"></line>
                    <line x1="5.6218" y1="17.3064" x2="11.5968" y2="17.3064" id="Stroke-18"></line>
                    <path d="M22.6931,21.5744 L22.6931,4.5024 C22.6931,2.1454 24.6041,0.2344 26.9621,0.2344 C29.3171,0.2344 31.2291,2.1444 31.2291,5.3564 L22.6931,5.3564" id="Stroke-20"></path>
                </g>
            </g>
        </g>
    </g>
</svg>