<svg xmlns="http://www.w3.org/2000/svg" width="100" height="69" viewBox="0 0 100 69"><g fill="none" fill-rule="evenodd"><path fill="#FFF" fill-rule="nonzero" d="M33 0h34v69H33z"/><path fill="#006847" fill-rule="nonzero" d="M0 0h33v69H0z"/><path fill="#CE1126" fill-rule="nonzero" d="M67 0h33v69H67z"/><path fill="#D19900" fill-rule="nonzero" d="M37.367 36.422c.01-.01.515-.662.45-.555.167.17.527.082.325-.275.078-.121.168-.21.246-.331.172-.235-.103-.386-.243-.226-.09.125-.169.195-.258.32-.342-.225-.424.18-.258.277-.094.099-.252.262-.345.361l.083.43z"/><path fill="#D19900" fill-rule="nonzero" d="M37.384 36.099c-.013-.008-.783-.302-.662-.272.114-.208-.074-.527-.356-.23-.139-.04-.25-.1-.389-.14-.275-.097-.339.21-.146.298.146.05.236.105.381.154-.116.393.296.353.34.167.122.061.588.25.71.31.129-.067-.007-.22.122-.287zm2.626 4.347c.007-.014.238-.805.218-.682.216.097.519-.116.2-.374.03-.142.08-.257.11-.399.073-.281-.239-.32-.31-.121-.038.149-.086.243-.123.392-.401-.085-.329.323-.14.352-.05.127-.138.336-.188.462l.234.37zm-.894-.255c.033-.235-.254-.468-.415-.091-.144.01-.27-.007-.413.004-.291.006-.244.316-.033.33.154-.004.258.017.411.012.028.409.4.228.377.038l.787.046c.098-.108-.097-.207 0-.316-.015-.002-.839-.009-.714-.023z"/><path fill="#42B2F3" fill-rule="nonzero" d="M47.92 40.608l4.82.395c1.196-.047 2.223-.264 3.335-.395v.17l-1.57.72c-.042.066-.056.132.015.198.226.165.65.075.707.494-.707.114-1.211.472-1.918.642-.165.164-.2.129-.365.294-.104.132-.067.409-.243.409h-.493c-.37 0-3.335.028-3.73 0-.097-.01-.188-.31-.272-.417-.223-.136-.51-.495-.596-.508-.6-.088-1.461-.11-1.817-.188 1.922-1.312-1.48-1.347-1.783-1.392-.23-.03-.066-.253.068-.313 1.058-.209-.995-1.211-.941-1.33-.126-.075.008-.134.008-.134.14-.092.252-.049.392-.14 1.995 1.177 2.508 1.006 2.424.485.096 0 .117.083.4-.126-.04.772.8 1.215 1.312 1.122.308.02.39.024.247.014z"/><path fill="#006847" fill-rule="nonzero" d="M35.972 34.965c-.15-.034-.256-.462-.006-.442.25.02.502-.03.412-.269-.09-.238-.267-.502-.267-.516-.05-.054.043-.358.283-.198.113.074.226.248.389.283.06-.01.1-.196.09-.34l.013-.489c-.04-.206.075-.44.263-.4.072.016.128.4.319.338.19-.061.109-.209.268-.268.16-.06.429-.064.269.212-.16.276-.22.276-.324.376-.055.08-.172.188.032.248.014 0 .292.04.292.04.19.08.14.23.07.307-.07.078-.148.173-.408.317-.26.144-.24.227-.076.23.164.002.102.002.358.002s.196.478-.194.442c-.117.028-.27.017-.334.203-.063.187.019.162.047.47.027.308.07.76.08.915.01.155-.193.082-.222.139-.212-.75-.554-1.406-1.354-1.6z"/><path fill="#006847" fill-rule="nonzero" d="M39.904 40.693c-.028-.035-1.177-1.472-1.995-1.385-.152.019-.407-.408-.251-.424.155-.016.13-.006.281 0 .152.005-.062-.307-.208-.272-.147.035-.281.058-.396.035-.355-.034-.51-.431-.25-.582.259-.15.468.094.631.045.163-.05.088-.199-.07-.22-.225-.034-.903-.115-1.053-.365-.15-.25-.001-.443.262-.31.218.132.254.146.19-.04-.064-.187-.064-.187-.136-.305-.071-.117.095-.36.25-.294.154.065.217.624.499.349.281-.275.2-.35.418-.35.218 0 .067.284.108.593.034.203.237.156.264.05-.043-.466.413-.474.465-.316.044.115.082.429.027.724-.03.15-.006.448.09.508.16.004.057-.033.167-.199.186-.12.476.314.137.532-.357.077.725 1.96.772 2.035.048.077-.175.226-.202.19z"/><path fill="#D19900" fill-rule="nonzero" d="M43.83 43.675c0-.016-.111-.832-.08-.711.238 0 .428-.318.032-.424-.031-.14-.031-.267-.063-.408-.047-.287-.348-.197-.332.015.026.151.021.257.047.408-.4.086-.168.429.016.379.005.136.01.363.016.499l.364.242zm-.956.095c-.024-.236-.36-.393-.425.011-.137.046-.262.059-.4.104-.28.077-.16.367.049.33.148-.042.254-.048.402-.09.125.39.443.125.374-.053l.806-.187c.068-.128-.175-.137-.107-.266-.015.002-.816.195-.7.15z"/><path fill="#D19900" fill-rule="nonzero" stroke="#9C4314" stroke-width=".272" d="M48.518 40.11a.625.625 0 00-.626.624v.002c-.104.477-.09 1.148 0 1.79 0 .344.279.624.624.625h.002c1.382.15 2.867.105 4.144 0a.625.625 0 00.626-.623v-.003c.164-.566.12-1.162 0-1.789a.625.625 0 00-.623-.626h-.003c-1.381-.06-2.792-.134-4.144 0h0z"/><path fill="#268728" fill-rule="nonzero" d="M42.908 23.902c-.388.171-.81.385-.506 1.3-.178 1.173.898 1.342 1.725 1.097.003-.007.12-.503.255-.8-.366-.056-.627.071-.959.049-.228-.037-.245-.209-.16-.321.357-.177.68-.346 1.038-.524-.005-.029.062-.151-.025-.067-.088.084-.507.202-.82.33-.247.086-.317-.232-.219-.372 0 0 .642-.92.642-.929.054-.193.016-.52-.026-.582l-.945.819z"/><path fill="#FFF" fill-rule="nonzero" stroke="#186A9A" stroke-width=".272" d="M46.496 39.17a.495.495 0 11-.99 0 .495.495 0 01.99 0zm-2.35 1.868a.467.467 0 11-.933 0 .467.467 0 01.934 0zm11.607 1.047a.467.467 0 11-.935 0 .467.467 0 01.935 0z"/><path fill="#BA4600" fill-rule="nonzero" d="M43.879 23.665c.025.45.037.712.037.784-.012-.263-.143-.485-.177-.588a2.34 2.34 0 01.14-.196z"/><path fill="#D19900" fill-rule="nonzero" stroke="#9C4314" stroke-width=".272" d="M48.477 42.651a.467.467 0 11-.934 0 .467.467 0 01.934 0zm4.467.475a.467.467 0 01-.475-.46.477.477 0 01.467-.482c.258 0 .467.209.467.467a.47.47 0 01-.46.475zm0-2.265a.467.467 0 01-.475-.46.477.477 0 01.467-.482c.258 0 .467.21.467.467a.47.47 0 01-.46.475zm-4.438-.475a.467.467 0 11-.935 0 .467.467 0 01.935 0z"/><path fill="#006847" fill-rule="nonzero" d="M43.776 43.932c-.069.198-.793-.659-1.299-.659-.506 0-.422 0-.61.015s-.271-.209-.042-.3c.23-.093-.442-.126-.645-.138-.204-.011-.355.068-.47.045-.355-.034-.563-.284-.303-.434.26-.151.553.041.716-.008.163-.05.207-.314-.018-.347-.225-.034-.976.033-1.126-.217-.15-.25-.106-.38.283-.331.39.048.079-.347-.149-.483-.228-.136.074-.472.228-.406.154.066-.098-.397.112-.508.21-.11.307-.007.377.362.07.37.065-.242.35-.367.285-.124-.017 1.095.275 1.084.291-.01-.043-.39.412-.507.454-.116.104 1.07.432 1.358.328.287.298-.204.458-.2.161.005.268.01.179.371-.067.28.033.346.084.459.307.676 1.007.402 1.057.863a.541.541 0 00-.301.348z"/><path fill="#FFF" fill-rule="nonzero" d="M50.706 45.115c.621.373.87.641 1.252 1.118a1.563 1.563 0 00-.536.15c-.463-.602-.82-.815-1.208-1.193.144-.035.348-.04.492-.075z"/><path fill="#FFBA00" fill-rule="nonzero" d="M44.463 25.41c-.916.642-.244 1.898.606 1.635-.6-.975-.04-1.453.66-1.123.212.156.38.494.4.474.133-.288.673-.567.673-.567s.424.057.5-.217c.049-.175.44-.902.44-.902l-1.36-.28-.939-.02-.5.22c-.066.107-.034.2-.1.306-.25.068-.357.278-.38.474z"/><path fill="#FFF" fill-rule="nonzero" stroke="#FFBA00" stroke-width=".272" d="M43.504 39.342c-.074.27-.492.37-.934.227-.441-.145-.739-.48-.664-.75.074-.27.493-.371.934-.227.441.144.739.48.664.75z"/><path fill="#006847" fill-rule="nonzero" d="M49.018 44.461a9.47 9.47 0 01-.293.01c-.562.011-.765.218-1.026.366-.352.201-.662.379-.725.6-.108.385-.449.274-.374.035.075-.24.211-.104.204-.261-.006-.157-.542.057-.623.141-.22.281-.597.269-.584-.031.013-.3.233-.189.28-.353.045-.164-.16-.217-.38-.102s-.358.28-.62.407c-.29.105-.57-.081-.317-.232.228-.112.119-.333-.073-.38-.192-.046-.98.087-1.121.008-.111-.015-.313-.306-.076-.358.215-.07.574.078.667-.342.093-.708 1.216.362 1.033.067-.411-.609.29-.752.5-.337.212.414.405.386.638.412.233.026-.198-.487 0-.564.198-.076.432-.09.58.115.11.106.134.543.546.58.413.036.004-.066-.076-.249-.001-.221.365-.203.521.172.155.286.974.092 1.722.109.194-.032.484.1-.112.165.03.079.02.203-.03.373-.305.114-.258.135-.495.234-.18.075-.348.185-.58.271-.16.034-.53-.143-.422-.197.247-.098.502-.252.799-.365.222-.084.313-.197.437-.294z"/><path fill="#FFF" fill-rule="nonzero" stroke="#FFBA00" stroke-width=".272" d="M46.231 42.26c.1.222-.124.521-.499.668-.375.147-.759.087-.858-.134-.099-.222.125-.52.5-.668.374-.147.758-.087.857.135z"/><path fill="#008D00" fill-rule="nonzero" d="M54.102 39.387c.024-1.228 1.027-.176 1.45-.683.994-1.17 1.079-1.26 1.957-1.133 2.353.925.214 2.094-2.508 2.09-.593-.004-.892-.095-.899-.274z"/><path fill="#D19900" fill-rule="nonzero" d="M62.901 35.32l.495.43-.15.173-.511-.442a.349.349 0 01-.19-.003c-.168-.047-.277-.197-.246-.334.032-.137.192-.21.359-.163.166.047.276.197.245.334l-.002.006z"/><path stroke="#9C4314" stroke-linecap="round" stroke-width=".295" d="M48.529 40.148c.728.221 1.264 2.84 1.978 3.075m-1.293-3.138c.729.22 1.24 2.88 1.954 3.116m-1.24-3.137c.728.22 1.277 2.891 1.99 3.127"/><path fill="#FFF" fill-rule="nonzero" stroke="#FFBA00" stroke-width=".272" d="M56.904 40.413c.099.222-.125.52-.5.667-.375.148-.759.087-.858-.134-.099-.221.125-.52.5-.667.375-.148.759-.087.858.134z"/><path fill="#CE1126" fill-rule="nonzero" d="M58.637 38.408c-.356.232-.773.203-.905 0-.131-.202-.013-.596.343-.828.356-.231.642-.143.79.074.146.217.128.523-.228.754z"/><path fill="#008F00" fill-rule="nonzero" d="M61.329 39.913c-.035-1.174-.345-2.874 1.096-3.457.186-.049.253.056.19.21l-1.286 3.247zm1.892-2.479c.256-.482.89-.604 1.114-.589-.443.452-.885 1.56-1.133 1.923-.358.616-1.402 1.053-2.027 1.416.7-.954 1.345-1.796 2.046-2.75z"/><path fill="#D19900" fill-rule="nonzero" d="M64.056 35.966l-.674.053-.018-.23.653-.05a.21.21 0 01.002-.006c.056-.129.233-.184.396-.123.162.06.248.215.191.344-.056.129-.233.184-.395.123a.349.349 0 01-.155-.111zm-3.223 3.548l.342.627-.214.124-.353-.648a.365.365 0 01-.19-.073c-.15-.112-.206-.307-.125-.437.08-.13.268-.146.418-.035.15.11.206.306.125.437a.233.233 0 01-.003.005zm.937 1.007l-.715-.03.004-.246.737.03a.365.365 0 01.16-.126c.173-.072.37-.02.44.117.07.136-.012.305-.184.377-.173.072-.37.02-.44-.117a.233.233 0 01-.002-.005z"/><path fill="#008C00" fill-rule="nonzero" d="M60.782 41.88c-.322.763-.415.816-.737.969-.322.153-1.866.152-2.484.308.775-.563 2.196-1.223 2.971-1.786.802-.434.571-.254.25.509zm-1.343-.815c-.652.702-1.226 1.346-1.878 2.048.229-.595.49-1.576.916-1.943.25-.25 1.026-.727 1.329-1.16.022.203-.033.79-.367 1.055zm-6.52 3.438c.33-.282.542-.625 1.04-.946.407-.224 1.167-.561 2.12-.422-.411.371-.359.796-1.24 1.029-.5.179-.854.3-1.245.394.5.043 1.002.076 1.61-.01.524-.154 1.417.234 1.563.404-.632 0-1.657.44-2.09.515-.69.175-2.275-.63-2.564-.972.288-.014.553-.008.806.008z"/><path fill="#D19900" fill-rule="nonzero" d="M57.16 42.78l.005.715-.247.008-.005-.738a.365.365 0 01-.133-.154c-.08-.17-.038-.368.095-.445.133-.077.306-.002.386.166.08.17.037.368-.096.445a.233.233 0 01-.005.003zm.563 1.173l-.6-.388.13-.211.619.401a.365.365 0 01.202-.027c.185.026.328.171.319.325-.01.153-.166.256-.351.23-.185-.025-.328-.17-.319-.324v-.006z"/><path fill="#008D00" fill-rule="nonzero" d="M43.392 36.355c-.394-.999-1.385-2.598-2.478-1.799-1.212 1.046.47 2.674 1.977 2.58.038-.332.205-.592.5-.78z"/><path fill="#CE1126" fill-rule="nonzero" d="M40.353 33.486c.21-.141.546-.144.796.222.25.367.228.803.018.944-.21.141-.626.025-.876-.342-.25-.367-.149-.683.062-.824z"/><path fill="#008D00" fill-rule="nonzero" d="M46.643 37.442c-.494-.878-1.674-1.815-3.047-1.112-1.623 1.139.568 2.87 2.9 2.028-.055-.46-.055-.631.147-.916z"/><path fill="#008D00" fill-rule="nonzero" d="M51.388 38.124c-.008-.014.008-.4 0-.415-.544-.892-2.874-2.213-4.294-.62-1.444 1.62.794 2.387 3.621 1.852.14-.145.364-.417.673-.817z"/><path fill="#008C00" fill-rule="nonzero" d="M63.44 33.925c.007.622.028 1.01-.102 1.642-.074-.423-.519-.77-.64-1.271-.052-.309-.155-.896.14-1.473.144.344.789.49.602 1.102zm.757-.583c.013-.335.45-.575.626-.628-.109.652.087.958.036 1.226-.04.437-.84 1.104-1.18 1.475.173-.717.345-1.356.518-2.073z"/><path fill="#CE1126" fill-rule="nonzero" d="M45.571 35.788c.254.08.478.357.34.808-.137.45-.35.74-.683.639-.434-.1-.512-.503-.375-.953.138-.45.464-.575.718-.494z"/><path fill="#9C4314" fill-rule="nonzero" d="M55.135 38.528c-.02-.405-.278-.528-.664-.622.202-.113.419-.48.692-.424.495.264.325.88-.028 1.046zm-4.22 1.507h1.22a.849.849 0 00-.027.043c-.318.566-.818.884-1.31.561a3.71 3.71 0 01.118-.604z"/><path fill="#008D00" fill-rule="nonzero" d="M50.68 40.501c.029-.427.445-1.929.94-2.37.74-.66 1.832-1.057 2.595-.794.89.645.278 1.24-.495 1.703-.559.334-1.41.334-1.728.9-.319.566-.819.884-1.312.561z"/><path fill="#9C4314" fill-rule="nonzero" d="M50.456 37.85c.252-.339.574-.312 1.004-.196-.132-.2-.13-.627-.428-.718-.51 0-.824.592-.576.914zm.908.877c.02-.405.278-.527.665-.622-.203-.113-.355-.48-.629-.424-.494.264-.389.881-.036 1.046z"/><path fill="#FFBA00" fill-rule="nonzero" d="M54.856 37.09c-.246-.03-.482.14-.728-.04-.03-.02-.602-.513-.766-.743-.164-.09-.508-.258-.508-.258-.202.264-.345.567-.637.741-.146.059-.201.127-.467.105-.274-.128-.576-.194-.733-.055.133.265.097.599.04.853.1.057.209-.01.327.016.367.01.274.403.41.573.386.105.582-.08.639-.395.102-.16.414-.181.636-.242.24-.046.54-.123.76 0a.832.832 0 01.396.41s.29.027.58-.028c.01-.174-.026-.49.424-.494a.447.447 0 00-.373-.443z"/><path fill="#FFBA00" d="M52.668 35.583l.014 1.221c.075.443.589.398.65.109l-.014-1.384"/><path fill="#9C4314" fill-rule="nonzero" d="M60.786 33.854c0-.036-.062-1.185.179-2.006.152-.277.157-2.348-.07-2.892.18-.015.4-.074.428-.296-.839.31-1.038-1.773-1.845-2.97-.788-1.2-1.766-1.899-2.782-2.627a2.19 2.19 0 01.352-.585c-1.248.625-3.192-1.638-6.06-1.469-.647.064-.952.103-1.117.497-.533.045-1.08.167-1.081.87.001.169.154.477.497.48.47.136.852.03 1.17.685.023.18.06.498.084.677 0 0-.42-.533-.65-.622.06-.088-.037-.149.14-.286-.215-.125-.6-.023-.6-.023s-.834-.392-1.505-.287c0-.071-.128-.543-.128-.543-.12.332-.381.314-.42.63-.071-.227-.168-.505-.24-.732-.235.322-.167.669-.25 1.003-.094.076-.28.08-.327-.135-.024-.263-.056-.289-.055-.602-.17.296-.374.44-.443.952-.071-.19-.109-.373-.18-.564.008.665-.566 1.064-1.11 1.531-.152.283.025.287.037.43l.286.144c.167-.012.53.078.753.147.597.167 1.344-.55 1.93.577-.27.225-.54.754-.455.852.107 0-.216.152.22.012-.455.444-.764 1.026-.764 1.062-.05.125.184-.017.135.21.064-.17.108-.015.108-.015-.507.55-.528 1.118-.43 1.631.105.54.34 1.02.283 1.352.173.279.195-.005.411-.036.183.797.707 1.281 1.029 1.914-.167-.051-.497-.069-.676.007.015.3.286.585.501.848-.155.047-.298.095-.454.143a2.528 2.528 0 00-.763.593c-.151.366.722.454 1.14.516-.037.131-.09.296-.015.44.659.064 1.42-.13 1.42-.167 0-.036.165-.128.165-.128.088.177.283.23.37.204.124 0 .317-.496.229-.875.238.286.463.742.702 1.029.072.076.166.02.225-.031.203.322.484.645.687.967.107.123.084.078.23.087.132-.043.245-.06.315-.318 0 0 .044.04.106.182.16.114.274-.16.363-.25.05-.122.248.025.248-.047.072.048.119.258.19.305.11-.04.219-.281.227-.537.109.224.143.206.226.266.072-.06.094-.294.166-.354-.015-.123.86.845.896.845.087.063.582.215.683.038.247.165.912.267 1.02.001.547.234 1.192-.028 1.164-.29.5.2 1.278.067 1.278.031.088-.01.33-.244.101-.42-1.66-1.16-4.13-3.077-5.08-3.54 0-.34-.259-1.575-.537-1.914-.051-.175.063-.392.228-.379.645.604.88.546 1.222.644.37.292.503.737.873 1.143.175.056.38.233.327.06-.23-.58-.51-1.14-1.202-1.894.359.179.945.653 1.342.997.264.435.338.782.577 1.331.173.11.35.515.324.18-.038-.632-.48-1.634-.48-1.705.703.561.696 1.43.908 1.963.184.27.276.629.352.545.089-.123-.209-1.642-.209-1.642-.048-.191-.072-.407-.12-.598.524.3.707 1.45.952 2.829.001.219.32 1.125.314.896 0 0 0-2.241-.151-2.756-.038-.274.067-.723.067-.723l.586 2.87c.127.58.223.903.286.967l.18-1.683s-.215-1.97-.215-2.006v-.574c-.005-.201.18-.163.303.066.024.49.023.878.046 1.367.084.561.142.97.188 1.684.022.584.045 1.967.169 1.943.196.152.526-1.58.476-2.122z"/><path fill="#FFF" fill-rule="nonzero" d="M45.801 24.187c.097-.08.2-.11.293.047.093.156.149.248 0 .448-.148.2-.382.229-.538.278-.156.049-.342 0-.342 0 .041-.289.49-.693.587-.773z"/><path fill="#238700" fill-rule="nonzero" d="M41.62 30.137c.036.435-.58 1.306 0 2.093.206.302.738.628.738.628.278.311.363.863.544 1.295.383.572.911.697 1.33.556 0 0 1.38-.617 1.38-.629 0-.012-.702-.943-.702-.931 0 .012-.786.665-.798.665-.085-.012-.545.036-.714-.544-.012-.742-.379-1.153-.968-1.452-.298-.226-.536-.584-.278-1.088.15-.46.299-1.234-.23-1.754-.338-.226-.58-.403-.943-.472-.432.133-.476.133-.315.75.269.274.871.105.956.883z"/><path fill="#FFBA00" fill-rule="nonzero" d="M47.343 33.736c.264.083 1.563.46 1.608.49l-.692.456-1.55-.527-.062.04c-.072.566-.718.262-1.186-.177-.003.164-.127.167-.29.137-.045.095-.222.233-.35.201-.04.076-.104.134-.335.055-.17-.033-.808-.828-.12-1.015.04-.215.176-.43.442-.394.247-.553 1.545-.593 2.317-.12.338.216.366.562.262.824l-.044.03z"/><path fill="#9C4314" fill-rule="nonzero" d="M44.61 34.435c.178.249.501.12.566-.078-.221.014-.306-.117-.384-.317-.048.115-.232.253-.183.395z"/><path fill="#9C4314" fill-rule="nonzero" d="M44.902 34.273c.178.248.428.138.493-.06-.222.014-.307-.117-.385-.318-.048.115-.179.216-.129.358l.02.02z"/><path fill="#9C4314" fill-rule="nonzero" d="M45.166 34.146c.178.248.501.12.566-.078-.221.014-.306-.117-.384-.317-.048.114-.232.252-.182.395z"/><path fill="#288800" fill-rule="nonzero" d="M44.962 28.819c-.997.783-1.535 2.31.222 2.404.635-.012 1.323-.068 1.711.429.388.497.402 1.414-.574 2.003-.096-.085-.238-.337-.344-.414-.106-.076-.176.022-.271-.062-.034-.316.48-.785-.006-.898-.63.107-2.837.116-2.81-1.989.05-.469.3-.995.702-1.531.403-.536 1.506-1.2 1.612-1.49.17-.252-.13-.747-.378-.815-.194-.547.68-1.116 1.256-.148.691.916-.275 1.928-1.12 2.51z"/><path d="M43.343 23.815c.055.07.022.196-.075.282-.096.087-.22.1-.274.03-.055-.07-.022-.196.075-.282.096-.087.219-.1.274-.03z"/><path fill="#006847" fill-rule="nonzero" d="M63.075 36.194a.501.501 0 00.03-.069c.095-.283.173-.587.232-.917-.044-.95-.043-2.647.59-3.103.233.136.31.577.326.819.045.968.078 1.502-.65 2.606-.073.253-.15.517-.247.76.085.304.005.744-.063 1-.316 1.086-.988 1.903-1.64 2.523-.222.292-.46.619-.72.873-.069.276-.284.584-.432.763-.68.787-1.555 1.232-2.353 1.52-.416.262-.914.672-1.401.881-.175.263-.533.529-.742.645-1.045.553-2.673.851-3.642.266a6.227 6.227 0 00-.458-.09c.36.234.71.528 1.014.731.094.075-.305.172-.455.105a6.382 6.382 0 00-.76-.615c-.129-.087-.3-.101-.463-.204l-.019-.01-.28-.001a.333.333 0 00.097-.093l-.073-.038a.342.342 0 00.111-.03.357.357 0 01.136-.16c.36-.043.778.019 1.176.087 1.949.047 1.875-.76 4.063-.826l.026-.012c.166-.097.339-.105.47-.188.26-.165.52-.36.781-.588a.179.179 0 01.013-.004c.615-.737 2.002-2.31 3.022-2.406a.66.66 0 00.12-.109c.134-.16.263-.335.388-.524.261-.958.89-3.047 1.803-3.592zm-13.91 7.88c.009-.002.244-.025.305-.025.253-.001.332.04.35.042.04.004-.022.035-.026.07-.043.325-.108.622-.108.857a.429.429 0 01-.057.21c-.464.602-1.109.744-1.37 1.33a2.24 2.24 0 00-.91.117c.062-.14.177-.3.282-.419.351-.4.908-.707 1.463-1.16a.154.154 0 00.023-.062l.021-.924c0-.011.019-.036.027-.037zm1.472 1.363c.272.163.276.274.406.359.26.17.4.433.723.836-.216.064-.289.42-.41.49-.312-.631-.38-.724-.816-1.021-.097-.067-.168-.228-.29-.348.123-.03.252-.135.387-.316z"/><path fill="#CE1126" fill-rule="nonzero" d="M51.008 45.149c-.04.033-.072.182-.246.359-.175.177-.3.331-.466.477-.106.092-.255.261-.347.354-.277.281-.478.434-.651.782-.081-.16.015-.176-.38-.46a6.92 6.92 0 01.589-.645c.244-.231.442-.443.548-.54.106-.097.26-.185.348-.553.087-.369.038-.288.056-.419.011-.076-.022-.367 0-.413a2.02 2.02 0 01.303-.042h.325c.035 0 .156.042.163.074.035.169.02.543.026.686.658.608 1.536 1.132 1.822 1.774-.331-.044-.47-.09-.667-.039-.158-.354-.633-.819-1.423-1.395z"/><path fill="#D19900" fill-rule="nonzero" d="M40.979 28.504c-.575-.251-.933-.324-1.076-.218-.214.159-.308.297-.25.588.06.29.843.333 1.084.451.161.079.242-.195.242-.82z"/></g></svg><svg xmlns="http://www.w3.org/2000/svg" width="100" height="69" viewBox="0 0 100 69"><g fill="none" fill-rule="evenodd"><path fill="#FFF" fill-rule="nonzero" d="M33 0h34v69H33z"/><path fill="#006847" fill-rule="nonzero" d="M0 0h33v69H0z"/><path fill="#CE1126" fill-rule="nonzero" d="M67 0h33v69H67z"/><path fill="#D19900" fill-rule="nonzero" d="M37.367 36.422c.01-.01.515-.662.45-.555.167.17.527.082.325-.275.078-.121.168-.21.246-.331.172-.235-.103-.386-.243-.226-.09.125-.169.195-.258.32-.342-.225-.424.18-.258.277-.094.099-.252.262-.345.361l.083.43z"/><path fill="#D19900" fill-rule="nonzero" d="M37.384 36.099c-.013-.008-.783-.302-.662-.272.114-.208-.074-.527-.356-.23-.139-.04-.25-.1-.389-.14-.275-.097-.339.21-.146.298.146.05.236.105.381.154-.116.393.296.353.34.167.122.061.588.25.71.31.129-.067-.007-.22.122-.287zm2.626 4.347c.007-.014.238-.805.218-.682.216.097.519-.116.2-.374.03-.142.08-.257.11-.399.073-.281-.239-.32-.31-.121-.038.149-.086.243-.123.392-.401-.085-.329.323-.14.352-.05.127-.138.336-.188.462l.234.37zm-.894-.255c.033-.235-.254-.468-.415-.091-.144.01-.27-.007-.413.004-.291.006-.244.316-.033.33.154-.004.258.017.411.012.028.409.4.228.377.038l.787.046c.098-.108-.097-.207 0-.316-.015-.002-.839-.009-.714-.023z"/><path fill="#42B2F3" fill-rule="nonzero" d="M47.92 40.608l4.82.395c1.196-.047 2.223-.264 3.335-.395v.17l-1.57.72c-.042.066-.056.132.015.198.226.165.65.075.707.494-.707.114-1.211.472-1.918.642-.165.164-.2.129-.365.294-.104.132-.067.409-.243.409h-.493c-.37 0-3.335.028-3.73 0-.097-.01-.188-.31-.272-.417-.223-.136-.51-.495-.596-.508-.6-.088-1.461-.11-1.817-.188 1.922-1.312-1.48-1.347-1.783-1.392-.23-.03-.066-.253.068-.313 1.058-.209-.995-1.211-.941-1.33-.126-.075.008-.134.008-.134.14-.092.252-.049.392-.14 1.995 1.177 2.508 1.006 2.424.485.096 0 .117.083.4-.126-.04.772.8 1.215 1.312 1.122.308.02.39.024.247.014z"/><path fill="#006847" fill-rule="nonzero" d="M35.972 34.965c-.15-.034-.256-.462-.006-.442.25.02.502-.03.412-.269-.09-.238-.267-.502-.267-.516-.05-.054.043-.358.283-.198.113.074.226.248.389.283.06-.01.1-.196.09-.34l.013-.489c-.04-.206.075-.44.263-.4.072.016.128.4.319.338.19-.061.109-.209.268-.268.16-.06.429-.064.269.212-.16.276-.22.276-.324.376-.055.08-.172.188.032.248.014 0 .292.04.292.04.19.08.14.23.07.307-.07.078-.148.173-.408.317-.26.144-.24.227-.076.23.164.002.102.002.358.002s.196.478-.194.442c-.117.028-.27.017-.334.203-.063.187.019.162.047.47.027.308.07.76.08.915.01.155-.193.082-.222.139-.212-.75-.554-1.406-1.354-1.6z"/><path fill="#006847" fill-rule="nonzero" d="M39.904 40.693c-.028-.035-1.177-1.472-1.995-1.385-.152.019-.407-.408-.251-.424.155-.016.13-.006.281 0 .152.005-.062-.307-.208-.272-.147.035-.281.058-.396.035-.355-.034-.51-.431-.25-.582.259-.15.468.094.631.045.163-.05.088-.199-.07-.22-.225-.034-.903-.115-1.053-.365-.15-.25-.001-.443.262-.31.218.132.254.146.19-.04-.064-.187-.064-.187-.136-.305-.071-.117.095-.36.25-.294.154.065.217.624.499.349.281-.275.2-.35.418-.35.218 0 .067.284.108.593.034.203.237.156.264.05-.043-.466.413-.474.465-.316.044.115.082.429.027.724-.03.15-.006.448.09.508.16.004.057-.033.167-.199.186-.12.476.314.137.532-.357.077.725 1.96.772 2.035.048.077-.175.226-.202.19z"/><path fill="#D19900" fill-rule="nonzero" d="M43.83 43.675c0-.016-.111-.832-.08-.711.238 0 .428-.318.032-.424-.031-.14-.031-.267-.063-.408-.047-.287-.348-.197-.332.015.026.151.021.257.047.408-.4.086-.168.429.016.379.005.136.01.363.016.499l.364.242zm-.956.095c-.024-.236-.36-.393-.425.011-.137.046-.262.059-.4.104-.28.077-.16.367.049.33.148-.042.254-.048.402-.09.125.39.443.125.374-.053l.806-.187c.068-.128-.175-.137-.107-.266-.015.002-.816.195-.7.15z"/><path fill="#D19900" fill-rule="nonzero" stroke="#9C4314" stroke-width=".272" d="M48.518 40.11a.625.625 0 00-.626.624v.002c-.104.477-.09 1.148 0 1.79 0 .344.279.624.624.625h.002c1.382.15 2.867.105 4.144 0a.625.625 0 00.626-.623v-.003c.164-.566.12-1.162 0-1.789a.625.625 0 00-.623-.626h-.003c-1.381-.06-2.792-.134-4.144 0h0z"/><path fill="#268728" fill-rule="nonzero" d="M42.908 23.902c-.388.171-.81.385-.506 1.3-.178 1.173.898 1.342 1.725 1.097.003-.007.12-.503.255-.8-.366-.056-.627.071-.959.049-.228-.037-.245-.209-.16-.321.357-.177.68-.346 1.038-.524-.005-.029.062-.151-.025-.067-.088.084-.507.202-.82.33-.247.086-.317-.232-.219-.372 0 0 .642-.92.642-.929.054-.193.016-.52-.026-.582l-.945.819z"/><path fill="#FFF" fill-rule="nonzero" stroke="#186A9A" stroke-width=".272" d="M46.496 39.17a.495.495 0 11-.99 0 .495.495 0 01.99 0zm-2.35 1.868a.467.467 0 11-.933 0 .467.467 0 01.934 0zm11.607 1.047a.467.467 0 11-.935 0 .467.467 0 01.935 0z"/><path fill="#BA4600" fill-rule="nonzero" d="M43.879 23.665c.025.45.037.712.037.784-.012-.263-.143-.485-.177-.588a2.34 2.34 0 01.14-.196z"/><path fill="#D19900" fill-rule="nonzero" stroke="#9C4314" stroke-width=".272" d="M48.477 42.651a.467.467 0 11-.934 0 .467.467 0 01.934 0zm4.467.475a.467.467 0 01-.475-.46.477.477 0 01.467-.482c.258 0 .467.209.467.467a.47.47 0 01-.46.475zm0-2.265a.467.467 0 01-.475-.46.477.477 0 01.467-.482c.258 0 .467.21.467.467a.47.47 0 01-.46.475zm-4.438-.475a.467.467 0 11-.935 0 .467.467 0 01.935 0z"/><path fill="#006847" fill-rule="nonzero" d="M43.776 43.932c-.069.198-.793-.659-1.299-.659-.506 0-.422 0-.61.015s-.271-.209-.042-.3c.23-.093-.442-.126-.645-.138-.204-.011-.355.068-.47.045-.355-.034-.563-.284-.303-.434.26-.151.553.041.716-.008.163-.05.207-.314-.018-.347-.225-.034-.976.033-1.126-.217-.15-.25-.106-.38.283-.331.39.048.079-.347-.149-.483-.228-.136.074-.472.228-.406.154.066-.098-.397.112-.508.21-.11.307-.007.377.362.07.37.065-.242.35-.367.285-.124-.017 1.095.275 1.084.291-.01-.043-.39.412-.507.454-.116.104 1.07.432 1.358.328.287.298-.204.458-.2.161.005.268.01.179.371-.067.28.033.346.084.459.307.676 1.007.402 1.057.863a.541.541 0 00-.301.348z"/><path fill="#FFF" fill-rule="nonzero" d="M50.706 45.115c.621.373.87.641 1.252 1.118a1.563 1.563 0 00-.536.15c-.463-.602-.82-.815-1.208-1.193.144-.035.348-.04.492-.075z"/><path fill="#FFBA00" fill-rule="nonzero" d="M44.463 25.41c-.916.642-.244 1.898.606 1.635-.6-.975-.04-1.453.66-1.123.212.156.38.494.4.474.133-.288.673-.567.673-.567s.424.057.5-.217c.049-.175.44-.902.44-.902l-1.36-.28-.939-.02-.5.22c-.066.107-.034.2-.1.306-.25.068-.357.278-.38.474z"/><path fill="#FFF" fill-rule="nonzero" stroke="#FFBA00" stroke-width=".272" d="M43.504 39.342c-.074.27-.492.37-.934.227-.441-.145-.739-.48-.664-.75.074-.27.493-.371.934-.227.441.144.739.48.664.75z"/><path fill="#006847" fill-rule="nonzero" d="M49.018 44.461a9.47 9.47 0 01-.293.01c-.562.011-.765.218-1.026.366-.352.201-.662.379-.725.6-.108.385-.449.274-.374.035.075-.24.211-.104.204-.261-.006-.157-.542.057-.623.141-.22.281-.597.269-.584-.031.013-.3.233-.189.28-.353.045-.164-.16-.217-.38-.102s-.358.28-.62.407c-.29.105-.57-.081-.317-.232.228-.112.119-.333-.073-.38-.192-.046-.98.087-1.121.008-.111-.015-.313-.306-.076-.358.215-.07.574.078.667-.342.093-.708 1.216.362 1.033.067-.411-.609.29-.752.5-.337.212.414.405.386.638.412.233.026-.198-.487 0-.564.198-.076.432-.09.58.115.11.106.134.543.546.58.413.036.004-.066-.076-.249-.001-.221.365-.203.521.172.155.286.974.092 1.722.109.194-.032.484.1-.112.165.03.079.02.203-.03.373-.305.114-.258.135-.495.234-.18.075-.348.185-.58.271-.16.034-.53-.143-.422-.197.247-.098.502-.252.799-.365.222-.084.313-.197.437-.294z"/><path fill="#FFF" fill-rule="nonzero" stroke="#FFBA00" stroke-width=".272" d="M46.231 42.26c.1.222-.124.521-.499.668-.375.147-.759.087-.858-.134-.099-.222.125-.52.5-.668.374-.147.758-.087.857.135z"/><path fill="#008D00" fill-rule="nonzero" d="M54.102 39.387c.024-1.228 1.027-.176 1.45-.683.994-1.17 1.079-1.26 1.957-1.133 2.353.925.214 2.094-2.508 2.09-.593-.004-.892-.095-.899-.274z"/><path fill="#D19900" fill-rule="nonzero" d="M62.901 35.32l.495.43-.15.173-.511-.442a.349.349 0 01-.19-.003c-.168-.047-.277-.197-.246-.334.032-.137.192-.21.359-.163.166.047.276.197.245.334l-.002.006z"/><path stroke="#9C4314" stroke-linecap="round" stroke-width=".295" d="M48.529 40.148c.728.221 1.264 2.84 1.978 3.075m-1.293-3.138c.729.22 1.24 2.88 1.954 3.116m-1.24-3.137c.728.22 1.277 2.891 1.99 3.127"/><path fill="#FFF" fill-rule="nonzero" stroke="#FFBA00" stroke-width=".272" d="M56.904 40.413c.099.222-.125.52-.5.667-.375.148-.759.087-.858-.134-.099-.221.125-.52.5-.667.375-.148.759-.087.858.134z"/><path fill="#CE1126" fill-rule="nonzero" d="M58.637 38.408c-.356.232-.773.203-.905 0-.131-.202-.013-.596.343-.828.356-.231.642-.143.79.074.146.217.128.523-.228.754z"/><path fill="#008F00" fill-rule="nonzero" d="M61.329 39.913c-.035-1.174-.345-2.874 1.096-3.457.186-.049.253.056.19.21l-1.286 3.247zm1.892-2.479c.256-.482.89-.604 1.114-.589-.443.452-.885 1.56-1.133 1.923-.358.616-1.402 1.053-2.027 1.416.7-.954 1.345-1.796 2.046-2.75z"/><path fill="#D19900" fill-rule="nonzero" d="M64.056 35.966l-.674.053-.018-.23.653-.05a.21.21 0 01.002-.006c.056-.129.233-.184.396-.123.162.06.248.215.191.344-.056.129-.233.184-.395.123a.349.349 0 01-.155-.111zm-3.223 3.548l.342.627-.214.124-.353-.648a.365.365 0 01-.19-.073c-.15-.112-.206-.307-.125-.437.08-.13.268-.146.418-.035.15.11.206.306.125.437a.233.233 0 01-.003.005zm.937 1.007l-.715-.03.004-.246.737.03a.365.365 0 01.16-.126c.173-.072.37-.02.44.117.07.136-.012.305-.184.377-.173.072-.37.02-.44-.117a.233.233 0 01-.002-.005z"/><path fill="#008C00" fill-rule="nonzero" d="M60.782 41.88c-.322.763-.415.816-.737.969-.322.153-1.866.152-2.484.308.775-.563 2.196-1.223 2.971-1.786.802-.434.571-.254.25.509zm-1.343-.815c-.652.702-1.226 1.346-1.878 2.048.229-.595.49-1.576.916-1.943.25-.25 1.026-.727 1.329-1.16.022.203-.033.79-.367 1.055zm-6.52 3.438c.33-.282.542-.625 1.04-.946.407-.224 1.167-.561 2.12-.422-.411.371-.359.796-1.24 1.029-.5.179-.854.3-1.245.394.5.043 1.002.076 1.61-.01.524-.154 1.417.234 1.563.404-.632 0-1.657.44-2.09.515-.69.175-2.275-.63-2.564-.972.288-.014.553-.008.806.008z"/><path fill="#D19900" fill-rule="nonzero" d="M57.16 42.78l.005.715-.247.008-.005-.738a.365.365 0 01-.133-.154c-.08-.17-.038-.368.095-.445.133-.077.306-.002.386.166.08.17.037.368-.096.445a.233.233 0 01-.005.003zm.563 1.173l-.6-.388.13-.211.619.401a.365.365 0 01.202-.027c.185.026.328.171.319.325-.01.153-.166.256-.351.23-.185-.025-.328-.17-.319-.324v-.006z"/><path fill="#008D00" fill-rule="nonzero" d="M43.392 36.355c-.394-.999-1.385-2.598-2.478-1.799-1.212 1.046.47 2.674 1.977 2.58.038-.332.205-.592.5-.78z"/><path fill="#CE1126" fill-rule="nonzero" d="M40.353 33.486c.21-.141.546-.144.796.222.25.367.228.803.018.944-.21.141-.626.025-.876-.342-.25-.367-.149-.683.062-.824z"/><path fill="#008D00" fill-rule="nonzero" d="M46.643 37.442c-.494-.878-1.674-1.815-3.047-1.112-1.623 1.139.568 2.87 2.9 2.028-.055-.46-.055-.631.147-.916z"/><path fill="#008D00" fill-rule="nonzero" d="M51.388 38.124c-.008-.014.008-.4 0-.415-.544-.892-2.874-2.213-4.294-.62-1.444 1.62.794 2.387 3.621 1.852.14-.145.364-.417.673-.817z"/><path fill="#008C00" fill-rule="nonzero" d="M63.44 33.925c.007.622.028 1.01-.102 1.642-.074-.423-.519-.77-.64-1.271-.052-.309-.155-.896.14-1.473.144.344.789.49.602 1.102zm.757-.583c.013-.335.45-.575.626-.628-.109.652.087.958.036 1.226-.04.437-.84 1.104-1.18 1.475.173-.717.345-1.356.518-2.073z"/><path fill="#CE1126" fill-rule="nonzero" d="M45.571 35.788c.254.08.478.357.34.808-.137.45-.35.74-.683.639-.434-.1-.512-.503-.375-.953.138-.45.464-.575.718-.494z"/><path fill="#9C4314" fill-rule="nonzero" d="M55.135 38.528c-.02-.405-.278-.528-.664-.622.202-.113.419-.48.692-.424.495.264.325.88-.028 1.046zm-4.22 1.507h1.22a.849.849 0 00-.027.043c-.318.566-.818.884-1.31.561a3.71 3.71 0 01.118-.604z"/><path fill="#008D00" fill-rule="nonzero" d="M50.68 40.501c.029-.427.445-1.929.94-2.37.74-.66 1.832-1.057 2.595-.794.89.645.278 1.24-.495 1.703-.559.334-1.41.334-1.728.9-.319.566-.819.884-1.312.561z"/><path fill="#9C4314" fill-rule="nonzero" d="M50.456 37.85c.252-.339.574-.312 1.004-.196-.132-.2-.13-.627-.428-.718-.51 0-.824.592-.576.914zm.908.877c.02-.405.278-.527.665-.622-.203-.113-.355-.48-.629-.424-.494.264-.389.881-.036 1.046z"/><path fill="#FFBA00" fill-rule="nonzero" d="M54.856 37.09c-.246-.03-.482.14-.728-.04-.03-.02-.602-.513-.766-.743-.164-.09-.508-.258-.508-.258-.202.264-.345.567-.637.741-.146.059-.201.127-.467.105-.274-.128-.576-.194-.733-.055.133.265.097.599.04.853.1.057.209-.01.327.016.367.01.274.403.41.573.386.105.582-.08.639-.395.102-.16.414-.181.636-.242.24-.046.54-.123.76 0a.832.832 0 01.396.41s.29.027.58-.028c.01-.174-.026-.49.424-.494a.447.447 0 00-.373-.443z"/><path fill="#FFBA00" d="M52.668 35.583l.014 1.221c.075.443.589.398.65.109l-.014-1.384"/><path fill="#9C4314" fill-rule="nonzero" d="M60.786 33.854c0-.036-.062-1.185.179-2.006.152-.277.157-2.348-.07-2.892.18-.015.4-.074.428-.296-.839.31-1.038-1.773-1.845-2.97-.788-1.2-1.766-1.899-2.782-2.627a2.19 2.19 0 01.352-.585c-1.248.625-3.192-1.638-6.06-1.469-.647.064-.952.103-1.117.497-.533.045-1.08.167-1.081.87.001.169.154.477.497.48.47.136.852.03 1.17.685.023.18.06.498.084.677 0 0-.42-.533-.65-.622.06-.088-.037-.149.14-.286-.215-.125-.6-.023-.6-.023s-.834-.392-1.505-.287c0-.071-.128-.543-.128-.543-.12.332-.381.314-.42.63-.071-.227-.168-.505-.24-.732-.235.322-.167.669-.25 1.003-.094.076-.28.08-.327-.135-.024-.263-.056-.289-.055-.602-.17.296-.374.44-.443.952-.071-.19-.109-.373-.18-.564.008.665-.566 1.064-1.11 1.531-.152.283.025.287.037.43l.286.144c.167-.012.53.078.753.147.597.167 1.344-.55 1.93.577-.27.225-.54.754-.455.852.107 0-.216.152.22.012-.455.444-.764 1.026-.764 1.062-.05.125.184-.017.135.21.064-.17.108-.015.108-.015-.507.55-.528 1.118-.43 1.631.105.54.34 1.02.283 1.352.173.279.195-.005.411-.036.183.797.707 1.281 1.029 1.914-.167-.051-.497-.069-.676.007.015.3.286.585.501.848-.155.047-.298.095-.454.143a2.528 2.528 0 00-.763.593c-.151.366.722.454 1.14.516-.037.131-.09.296-.015.44.659.064 1.42-.13 1.42-.167 0-.036.165-.128.165-.128.088.177.283.23.37.204.124 0 .317-.496.229-.875.238.286.463.742.702 1.029.072.076.166.02.225-.031.203.322.484.645.687.967.107.123.084.078.23.087.132-.043.245-.06.315-.318 0 0 .044.04.106.182.16.114.274-.16.363-.25.05-.122.248.025.248-.047.072.048.119.258.19.305.11-.04.219-.281.227-.537.109.224.143.206.226.266.072-.06.094-.294.166-.354-.015-.123.86.845.896.845.087.063.582.215.683.038.247.165.912.267 1.02.001.547.234 1.192-.028 1.164-.29.5.2 1.278.067 1.278.031.088-.01.33-.244.101-.42-1.66-1.16-4.13-3.077-5.08-3.54 0-.34-.259-1.575-.537-1.914-.051-.175.063-.392.228-.379.645.604.88.546 1.222.644.37.292.503.737.873 1.143.175.056.38.233.327.06-.23-.58-.51-1.14-1.202-1.894.359.179.945.653 1.342.997.264.435.338.782.577 1.331.173.11.35.515.324.18-.038-.632-.48-1.634-.48-1.705.703.561.696 1.43.908 1.963.184.27.276.629.352.545.089-.123-.209-1.642-.209-1.642-.048-.191-.072-.407-.12-.598.524.3.707 1.45.952 2.829.001.219.32 1.125.314.896 0 0 0-2.241-.151-2.756-.038-.274.067-.723.067-.723l.586 2.87c.127.58.223.903.286.967l.18-1.683s-.215-1.97-.215-2.006v-.574c-.005-.201.18-.163.303.066.024.49.023.878.046 1.367.084.561.142.97.188 1.684.022.584.045 1.967.169 1.943.196.152.526-1.58.476-2.122z"/><path fill="#FFF" fill-rule="nonzero" d="M45.801 24.187c.097-.08.2-.11.293.047.093.156.149.248 0 .448-.148.2-.382.229-.538.278-.156.049-.342 0-.342 0 .041-.289.49-.693.587-.773z"/><path fill="#238700" fill-rule="nonzero" d="M41.62 30.137c.036.435-.58 1.306 0 2.093.206.302.738.628.738.628.278.311.363.863.544 1.295.383.572.911.697 1.33.556 0 0 1.38-.617 1.38-.629 0-.012-.702-.943-.702-.931 0 .012-.786.665-.798.665-.085-.012-.545.036-.714-.544-.012-.742-.379-1.153-.968-1.452-.298-.226-.536-.584-.278-1.088.15-.46.299-1.234-.23-1.754-.338-.226-.58-.403-.943-.472-.432.133-.476.133-.315.75.269.274.871.105.956.883z"/><path fill="#FFBA00" fill-rule="nonzero" d="M47.343 33.736c.264.083 1.563.46 1.608.49l-.692.456-1.55-.527-.062.04c-.072.566-.718.262-1.186-.177-.003.164-.127.167-.29.137-.045.095-.222.233-.35.201-.04.076-.104.134-.335.055-.17-.033-.808-.828-.12-1.015.04-.215.176-.43.442-.394.247-.553 1.545-.593 2.317-.12.338.216.366.562.262.824l-.044.03z"/><path fill="#9C4314" fill-rule="nonzero" d="M44.61 34.435c.178.249.501.12.566-.078-.221.014-.306-.117-.384-.317-.048.115-.232.253-.183.395z"/><path fill="#9C4314" fill-rule="nonzero" d="M44.902 34.273c.178.248.428.138.493-.06-.222.014-.307-.117-.385-.318-.048.115-.179.216-.129.358l.02.02z"/><path fill="#9C4314" fill-rule="nonzero" d="M45.166 34.146c.178.248.501.12.566-.078-.221.014-.306-.117-.384-.317-.048.114-.232.252-.182.395z"/><path fill="#288800" fill-rule="nonzero" d="M44.962 28.819c-.997.783-1.535 2.31.222 2.404.635-.012 1.323-.068 1.711.429.388.497.402 1.414-.574 2.003-.096-.085-.238-.337-.344-.414-.106-.076-.176.022-.271-.062-.034-.316.48-.785-.006-.898-.63.107-2.837.116-2.81-1.989.05-.469.3-.995.702-1.531.403-.536 1.506-1.2 1.612-1.49.17-.252-.13-.747-.378-.815-.194-.547.68-1.116 1.256-.148.691.916-.275 1.928-1.12 2.51z"/><path d="M43.343 23.815c.055.07.022.196-.075.282-.096.087-.22.1-.274.03-.055-.07-.022-.196.075-.282.096-.087.219-.1.274-.03z"/><path fill="#006847" fill-rule="nonzero" d="M63.075 36.194a.501.501 0 00.03-.069c.095-.283.173-.587.232-.917-.044-.95-.043-2.647.59-3.103.233.136.31.577.326.819.045.968.078 1.502-.65 2.606-.073.253-.15.517-.247.76.085.304.005.744-.063 1-.316 1.086-.988 1.903-1.64 2.523-.222.292-.46.619-.72.873-.069.276-.284.584-.432.763-.68.787-1.555 1.232-2.353 1.52-.416.262-.914.672-1.401.881-.175.263-.533.529-.742.645-1.045.553-2.673.851-3.642.266a6.227 6.227 0 00-.458-.09c.36.234.71.528 1.014.731.094.075-.305.172-.455.105a6.382 6.382 0 00-.76-.615c-.129-.087-.3-.101-.463-.204l-.019-.01-.28-.001a.333.333 0 00.097-.093l-.073-.038a.342.342 0 00.111-.03.357.357 0 01.136-.16c.36-.043.778.019 1.176.087 1.949.047 1.875-.76 4.063-.826l.026-.012c.166-.097.339-.105.47-.188.26-.165.52-.36.781-.588a.179.179 0 01.013-.004c.615-.737 2.002-2.31 3.022-2.406a.66.66 0 00.12-.109c.134-.16.263-.335.388-.524.261-.958.89-3.047 1.803-3.592zm-13.91 7.88c.009-.002.244-.025.305-.025.253-.001.332.04.35.042.04.004-.022.035-.026.07-.043.325-.108.622-.108.857a.429.429 0 01-.057.21c-.464.602-1.109.744-1.37 1.33a2.24 2.24 0 00-.91.117c.062-.14.177-.3.282-.419.351-.4.908-.707 1.463-1.16a.154.154 0 00.023-.062l.021-.924c0-.011.019-.036.027-.037zm1.472 1.363c.272.163.276.274.406.359.26.17.4.433.723.836-.216.064-.289.42-.41.49-.312-.631-.38-.724-.816-1.021-.097-.067-.168-.228-.29-.348.123-.03.252-.135.387-.316z"/><path fill="#CE1126" fill-rule="nonzero" d="M51.008 45.149c-.04.033-.072.182-.246.359-.175.177-.3.331-.466.477-.106.092-.255.261-.347.354-.277.281-.478.434-.651.782-.081-.16.015-.176-.38-.46a6.92 6.92 0 01.589-.645c.244-.231.442-.443.548-.54.106-.097.26-.185.348-.553.087-.369.038-.288.056-.419.011-.076-.022-.367 0-.413a2.02 2.02 0 01.303-.042h.325c.035 0 .156.042.163.074.035.169.02.543.026.686.658.608 1.536 1.132 1.822 1.774-.331-.044-.47-.09-.667-.039-.158-.354-.633-.819-1.423-1.395z"/><path fill="#D19900" fill-rule="nonzero" d="M40.979 28.504c-.575-.251-.933-.324-1.076-.218-.214.159-.308.297-.25.588.06.29.843.333 1.084.451.161.079.242-.195.242-.82z"/></g></svg>